# xmcd CD database file
#
# Track frame offsets:
#	150
#	23403
#	45261
#	63399
#	76259
#	102482
#	119791
#	138797
#	160640
#	174752
#	186626
#
# Disc length: 2782 seconds
#
# Revision: 0
# Processed by: cddbd v1.5.2PL0 Copyright (c) Steve Scherf et al.
# Submitted via: CDex 1.70beta2
#
DISCID=840adc0b
DTITLE=THE AMENTA - FLESH IS HEIR
DYEAR=2013
DGENRE=Industrial Metal
TTITLE0=FLESH IS HEIR
TTITLE1=EGO ERGO SUM
TTITLE2=TEETH
TTITLE3=A WOMB TONE
TTITLE4=OBLITERATE'S PRAYER
TTITLE5=SEWER
TTITLE6=THE ARGUMENT
TTITLE7=CELL
TTITLE8=DISINTEGRATE
TTITLE9=A PALIM PESEST
TTITLE10=TABULA RASA
EXTD=YEAR: 2013
EXTT0=
EXTT1=
EXTT2=
EXTT3=
EXTT4=
EXTT5=
EXTT6=
EXTT7=
EXTT8=
EXTT9=
EXTT10=
PLAYORDER=
